<svg xmlns="http://www.w3.org/2000/svg" xmlns:xlink="http://www.w3.org/1999/xlink" viewBox="0,0,256,256" width="48px" height="48px" fill-rule="nonzero"><g fill-opacity="0" fill="#dddddd" fill-rule="nonzero" stroke="none" stroke-width="1" stroke-linecap="butt" stroke-linejoin="miter" stroke-miterlimit="10" stroke-dasharray="" stroke-dashoffset="0" font-family="none" font-weight="none" font-size="none" text-anchor="none" style="mix-blend-mode: normal"><path d="M0,256v-256h256v256z" id="bgRectangle"></path></g><g fill="none" fill-rule="nonzero" stroke="none" stroke-width="1" stroke-linecap="butt" stroke-linejoin="miter" stroke-miterlimit="10" stroke-dasharray="" stroke-dashoffset="0" font-family="none" font-weight="none" font-size="none" text-anchor="none" style="mix-blend-mode: normal"><g transform="scale(5.33333,5.33333)"><path d="M19,44h-9v-2h7v-8h2z" fill="#546e7a"></path><path d="M14,38h-7v-2h5v-7.25h2z" fill="#546e7a"></path><path d="M5,31h-2v-6h10v2h-8z" fill="#546e7a"></path><path d="M38,44h-9v-10h2v8h7z" fill="#546e7a"></path><path d="M41,38h-7v-10h2v8h5z" fill="#546e7a"></path><path d="M45,31h-2v-4h-7v-2h9z" fill="#546e7a"></path><path d="M39.989,10c0,0 0.999,23 -15.816,32c-17.161,-9 -16.162,-32 -16.162,-32c7.995,0 15.989,-8 15.989,-8c0,0 6.995,8 15.989,8z" fill="#ffc107"></path><path d="M28,18c0.00912,-1.94118 -1.37683,-3.6087 -3.28695,-3.95473c-1.91012,-0.34602 -3.79295,0.72934 -4.46537,2.55037c-0.67242,1.82102 0.0597,3.86197 1.73631,4.84036l-1.984,7.564h8l-1.984,-7.564c1.22542,-0.71091 1.9809,-2.0193 1.984,-3.436z" fill="#5d4037"></path><circle cx="41" cy="37" r="2" fill="#4fc3f7"></circle><circle cx="44" cy="31" r="2" fill="#4fc3f7"></circle><circle cx="38" cy="43" r="2" fill="#4fc3f7"></circle><circle cx="7" cy="37" r="2" fill="#4fc3f7"></circle><circle cx="4" cy="31" r="2" fill="#4fc3f7"></circle><circle cx="10" cy="43" r="2" fill="#4fc3f7"></circle></g></g></svg>